{"title":"Wasteland.2012.WEB-DL.X264.AC3-BiTo","uid":8665808,"size":1318094160,"categoryP":"video","categoryS":"movies","magnet":"?xt=urn:btih:973e85f13cd94d61865f15f4b18512cbd8528ba8&amp;dn=Wasteland.2012.WEB-DL.X264.AC3-BiTo&amp;tr=udp%3A%2F%2Ftracker.openbittorrent.com%3A80&amp;tr=udp%3A%2F%2Fopen.demonii.com%3A1337&amp;tr=udp%3A%2F%2Ftracker.coppersurfer.tk%3A6969&amp;tr=udp%3A%2F%2Fexodus.desync.com%3A6969","seeders":1,"leechers":0,"uploader":"hdporn","files":2,"time":1373403157,"description":"Wasteland 2012 WEB-DL X264 AC3 - BiTo\n\n\nIMDB:-http://www.imdb.com/title/tt1981140/\n\nFormat                                   : Matroska\nFormat version                           : Version 2\nFile size                                : 1.21 GiB\nDuration                                 : 1h 49mn\nOverall bit rate                         : 1 585 Kbps\n\nVideo\nID                                       : 1\nFormat                                   : AVC\nFormat/Info                              : Advanced Video Codec\nFormat profile                           : &lt;a class=&quot;__cf_email__&quot; href=&quot;/cdn-cgi/l/email-protection&quot; data-cfemail=&quot;d79ab6beb9979be4f9e7&quot;&gt;[email&amp;#160;protected]&lt;/a&gt;&lt;script cf-hash='f9e31' type=&quot;text/javascript&quot;&gt;\n/* &lt;![CDATA[ */!function(){try{var t=&quot;currentScript&quot;in document?document.currentScript:function(){for(var t=document.getElementsByTagName(&quot;script&quot;),e=t.length;e--;)if(t[e].getAttribute(&quot;cf-hash&quot;))return t[e]}();if(t&amp;&amp;t.previousSibling){var e,r,n,i,c=t.previousSibling,a=c.getAttribute(&quot;data-cfemail&quot;);if(a){for(e=&quot;&quot;,r=parseInt(a.substr(0,2),16),n=2;a.length-n;n+=2)i=parseInt(a.substr(n,2),16)^r,e+=String.fromCharCode(i);e=document.createTextNode(e),c.parentNode.replaceChild(e,c)}}}catch(u){}}();/* ]]&gt; */&lt;/script&gt;\nFormat settings, CABAC                   : Yes\nFormat settings, ReFrames                : 4 frames\nCodec ID                                 : V_MPEG4/ISO/AVC\nDuration                                 : 1h 49mn\nBit rate                                 : 1 200 Kbps\nWidth                                    : 720 pixels\nHeight                                   : 304 pixels\nDisplay aspect ratio                     : 2.35:1\nOriginal display aspect ratio            : 2.35:1\nFrame rate mode                          : Variable\nFrame rate                               : 23.976 fps\nColor space                              : YUV\nChroma subsampling                       : 4:2:0\nBit depth                                : 8 bits\nScan type                                : Progressive\nBits/(Pixel*Frame)                       : 0.229\nStream size                              : 913 MiB (74%)\nLanguage                                 : English\n\nAudio\nID                                       : 2\nFormat                                   : AC-3\nFormat/Info                              : Audio Coding 3\nMode extension                           : CM (complete main)\nFormat settings, Endianness              : Big\nCodec ID                                 : A_AC3\nDuration                                 : 1h 49mn\nBit rate mode                            : Constant\nBit rate                                 : 384 Kbps\nChannel(s)                               : 6 channels\nChannel positions                        : Front: L C R, Side: L R, LFE\nSampling rate                            : 48.0 KHz\nBit depth                                : 16 bits\nCompression mode                         : Lossy\nStream size                              : 300 MiB (24%)\nLanguage                                 : English\nDefault                                  : Yes\nForced                                   : No\n\n\nSCREENSHOTS:-\n\n &lt;a href=&quot;\nhttp://someimage.com/igpuaAw&quot; rel=&quot;nofollow&quot; target=&quot;_NEW&quot;&gt;\nhttp://someimage.com/igpuaAw&lt;/a&gt; &lt;a href=&quot;\nhttp://someimage.com/Jm4BUsh&quot; rel=&quot;nofollow&quot; target=&quot;_NEW&quot;&gt;\nhttp://someimage.com/Jm4BUsh&lt;/a&gt; &lt;a href=&quot;\nhttp://someimage.com/teZeTbS&quot; rel=&quot;nofollow&quot; target=&quot;_NEW&quot;&gt;\nhttp://someimage.com/teZeTbS&lt;/a&gt; &lt;a href=&quot;\nhttp://someimage.com/S7u1eJl&quot; rel=&quot;nofollow&quot; target=&quot;_NEW&quot;&gt;\nhttp://someimage.com/S7u1eJl&lt;/a&gt; &lt;a href=&quot;\nhttp://someimage.com/eaIOmCg&quot; rel=&quot;nofollow&quot; target=&quot;_NEW&quot;&gt;\nhttp://someimage.com/eaIOmCg&lt;/a&gt; &lt;a href=&quot;\nhttp://someimage.com/uqsscFJ&quot; rel=&quot;nofollow&quot; target=&quot;_NEW&quot;&gt;\nhttp://someimage.com/uqsscFJ&lt;/a&gt; &lt;a href=&quot;\nhttp://someimage.com/1I4AN8E&quot; rel=&quot;nofollow&quot; target=&quot;_NEW&quot;&gt;\nhttp://someimage.com/1I4AN8E&lt;/a&gt; &lt;a href=&quot;\nhttp://someimage.com/rUYVlb8&quot; rel=&quot;nofollow&quot; target=&quot;_NEW&quot;&gt;\nhttp://someimage.com/rUYVlb8&lt;/a&gt; &lt;a href=&quot;\nhttp://someimage.com/JIccQsJ&quot; rel=&quot;nofollow&quot; target=&quot;_NEW&quot;&gt;\nhttp://someimage.com/JIccQsJ&lt;/a&gt; &lt;a href=&quot;\nhttp://someimage.com/OZRezTw&quot; rel=&quot;nofollow&quot; target=&quot;_NEW&quot;&gt;\nhttp://someimage.com/OZRezTw&lt;/a&gt; &lt;a href=&quot;\nhttp://someimage.com/HOetIrw&quot; rel=&quot;nofollow&quot; target=&quot;_NEW&quot;&gt;\nhttp://someimage.com/HOetIrw&lt;/a&gt; &lt;a href=&quot;\nhttp://someimage.com/nslcu9C&quot; rel=&quot;nofollow&quot; target=&quot;_NEW&quot;&gt;\nhttp://someimage.com/nslcu9C&lt;/a&gt; &lt;a href=&quot;\nhttp://someimage.com/6Z4n85u&quot; rel=&quot;nofollow&quot; target=&quot;_NEW&quot;&gt;\nhttp://someimage.com/6Z4n85u&lt;/a&gt; &lt;a href=&quot;\nhttp://someimage.com/oRJ2Hr6&quot; rel=&quot;nofollow&quot; target=&quot;_NEW&quot;&gt;\nhttp://someimage.com/oRJ2Hr6&lt;/a&gt; &lt;a href=&quot;\nhttp://someimage.com/6asDPxW&quot; rel=&quot;nofollow&quot; target=&quot;_NEW&quot;&gt;\nhttp://someimage.com/6asDPxW&lt;/a&gt; &lt;a href=&quot;\nhttp://someimage.com/oOjB7vE&quot; rel=&quot;nofollow&quot; target=&quot;_NEW&quot;&gt;\nhttp://someimage.com/oOjB7vE&lt;/a&gt;\n\n","torrent":{"xt":"urn:btih:973e85f13cd94d61865f15f4b18512cbd8528ba8","amp;dn":"Wasteland.2012.WEB-DL.X264.AC3-BiTo","amp;tr":["udp%3A%2F%2Ftracker.openbittorrent.com%3A80","udp%3A%2F%2Fopen.demonii.com%3A1337","udp%3A%2F%2Ftracker.coppersurfer.tk%3A6969","udp%3A%2F%2Fexodus.desync.com%3A6969"],"infoHash":"973e85f13cd94d61865f15f4b18512cbd8528ba8","infoHashBuffer":{"type":"Buffer","data":[151,62,133,241,60,217,77,97,134,95,21,244,177,133,18,203,216,82,139,168]},"announce":[],"urlList":[]}}